<svg xmlns="http://www.w3.org/2000/svg" xmlns:xlink="http://www.w3.org/1999/xlink" id="Layer_1" data-name="Layer 1" viewBox="0 0 515.91 201.73"><defs><style>.cls-1{fill:#babcbe;}.cls-2{fill:#fd0;}.cls-3{fill:url(#radial-gradient);}</style><radialGradient id="radial-gradient" cx="6675.65" cy="-401.83" r="247.8" gradientTransform="translate(-1459.89 154.04) scale(0.23 0.23)" gradientUnits="userSpaceOnUse"><stop offset="0" stop-color="#fff"/><stop offset="0.11" stop-color="#fffffc"/><stop offset="0.21" stop-color="#fffdf1"/><stop offset="0.3" stop-color="#fffbdf"/><stop offset="0.39" stop-color="#fff7c6"/><stop offset="0.47" stop-color="#fff3a6"/><stop offset="0.56" stop-color="#ffee7e"/><stop offset="0.64" stop-color="#ffe84f"/><stop offset="0.72" stop-color="#ffe01a"/><stop offset="0.75" stop-color="#fd0"/></radialGradient></defs><polygon class="cls-1" points="88.57 154.92 89.2 166.01 92.94 174.03 100.44 177.73 112.92 177.73 117.32 172.18 121.06 161.09 119.81 151.84 111.68 151.63 94.82 151.22 88.57 154.92"/><path class="cls-2" d="M145.42,88.1C145.42,66,127.23,48,104.81,48S64.21,66,64.21,88.1a39.55,39.55,0,0,0,8.7,24.75l13.81,26.46,1.66,9.45,7.52,3.7,15-.82,7.5-2.07,2.92-11.91,8.73-15.2-.91-2.28A39.77,39.77,0,0,0,145.42,88.1Z"/><path d="M104.81,41.53c-26.42,0-47.91,21.2-47.91,47.26A47.2,47.2,0,0,0,72,123.28l.08.07.08.06.07,0a1.2,1.2,0,0,0,.17.17,33.94,33.94,0,0,1,11,25.13h0v15.39a21.09,21.09,0,0,0,16,20.33,5.51,5.51,0,0,0,10.72,0,21.09,21.09,0,0,0,16-20.33V148.76h.07a34,34,0,0,1,11.1-25.22l.44-.39a46.63,46.63,0,0,0,15-34.36C152.73,62.73,131.22,41.53,104.81,41.53Zm11.38,122.62a11.37,11.37,0,0,1-22.73,0v-6.81h22.73Zm14.66-48.3a5.38,5.38,0,0,1-.4.38,44.4,44.4,0,0,0-14.32,31.3H93.49a44.34,44.34,0,0,0-14.14-31.14l-.2-.19-.06-.07a1,1,0,0,1-.17-.13l0,0A36.73,36.73,0,0,1,67,88.79c0-20.57,17-37.31,37.83-37.31s37.83,16.74,37.83,37.31A36.68,36.68,0,0,1,130.85,115.85Zm-21-102.91h-10V32.68h10Zm64.05,42.19-5-8.53-17.31,9.86,5,8.53ZM147.57,25.58l-8.66-4.94-10,17.08,8.67,4.93ZM80.71,37.72l-10-17.08-8.64,4.94,10,17.07Zm81,46.12v9.85h20V83.84ZM58.08,56.46,40.76,46.6l-5,8.53L53.08,65ZM35.76,122.41l5,8.53,17.32-9.85-5-8.56Zm115.8-1.32,17.31,9.85,5-8.53-17.31-9.88ZM48,83.84H28v9.85H48Z"/><path class="cls-3" d="M72.85,88.34a31,31,0,0,0,10,22.91c.1.08.54.51.54.51a56.83,56.83,0,0,1,17,31.23h8.92a56.94,56.94,0,0,1,17.14-31.44l.46-.4a31,31,0,0,0,9.91-22.81,32,32,0,0,0-63.94,0Z"/><path d="M254.31,155.94V139.28h10.56v2h-8.31v4.56h7.75v2h-7.75V154h8.31v2Z"/><path d="M268.76,155.94h-2.12V138.53h2.12Z"/><path d="M276.83,156.24a6.34,6.34,0,0,1-4.71-1.69,6.47,6.47,0,0,1-1.67-4.79,7,7,0,0,1,1.62-4.86,5.46,5.46,0,0,1,4.24-1.8,6,6,0,0,1,2.1.33,4.24,4.24,0,0,1,1.58,1.06,4.88,4.88,0,0,1,1.05,1.74,8.15,8.15,0,0,1,.35,2.54v1.14h-8.78a4.59,4.59,0,0,0,1.11,3.33,4,4,0,0,0,3.08,1.16,6.65,6.65,0,0,0,2.6-.56,7.79,7.79,0,0,0,1-.5,6,6,0,0,0,.67-.45h.12v2.29c-.25.11-.57.23-.93.37a9.14,9.14,0,0,1-1,.34c-.41.11-.79.2-1.13.26A7.46,7.46,0,0,1,276.83,156.24Zm2.49-7.94a6.69,6.69,0,0,0-.2-1.47,3.17,3.17,0,0,0-.52-1,2.51,2.51,0,0,0-1-.71,4.17,4.17,0,0,0-2.9,0,3.62,3.62,0,0,0-1.08.73,3.55,3.55,0,0,0-.72,1.1,4.37,4.37,0,0,0-.33,1.39Z"/><path d="M288,156.23a7.06,7.06,0,0,1-2.4-.4,4.78,4.78,0,0,1-1.86-1.2,5.39,5.39,0,0,1-1.22-2,8.81,8.81,0,0,1-.44-2.88,8.29,8.29,0,0,1,.45-2.84,5.89,5.89,0,0,1,1.21-2,4.89,4.89,0,0,1,1.85-1.27,6.69,6.69,0,0,1,2.41-.44,6.8,6.8,0,0,1,2,.3,9.61,9.61,0,0,1,1.73.67v2.36h-.12A6,6,0,0,0,291,146a6.48,6.48,0,0,0-.87-.51,7.15,7.15,0,0,0-1-.39A4.29,4.29,0,0,0,288,145a3.27,3.27,0,0,0-2.66,1.25,5.37,5.37,0,0,0-1,3.49,5.49,5.49,0,0,0,1,3.45A3.22,3.22,0,0,0,288,154.4a4.87,4.87,0,0,0,2-.42,6.13,6.13,0,0,0,1.67-1.1h.12v2.36l-.79.35a6.1,6.1,0,0,1-.86.31,9.16,9.16,0,0,1-1,.24A6.53,6.53,0,0,1,288,156.23Z"/><path d="M297,156.19a3.63,3.63,0,0,1-2.72-1,4.18,4.18,0,0,1-1-3.09v-6.93h-1.44v-1.74h1.44v-3.6h2.13v3.6h3.92v1.74h-3.92v5.95c0,.63,0,1.12,0,1.46a2.29,2.29,0,0,0,.26,1,1.23,1.23,0,0,0,.62.59,2.86,2.86,0,0,0,1.17.2,3.39,3.39,0,0,0,1-.16,5.52,5.52,0,0,0,.7-.25h.12v1.89a11.81,11.81,0,0,1-1.21.27A8.13,8.13,0,0,1,297,156.19Z"/><path d="M307,145.7h-.11a2.72,2.72,0,0,0-.51-.08l-.64,0a4.35,4.35,0,0,0-1.71.37,5.92,5.92,0,0,0-1.62,1.09v8.88h-2.12V143.45h2.12v1.85a9.73,9.73,0,0,1,2-1.44,3.85,3.85,0,0,1,1.69-.41h.49l.37,0Z"/><path d="M318.41,149.7a7.1,7.1,0,0,1-1.54,4.88,5.28,5.28,0,0,1-4.12,1.71,5.17,5.17,0,0,1-4.16-1.77,7.28,7.28,0,0,1-1.51-4.82,7.08,7.08,0,0,1,1.57-4.88,5.77,5.77,0,0,1,8.22,0A7.14,7.14,0,0,1,318.41,149.7Zm-2.2,0a5.94,5.94,0,0,0-.9-3.61,3.37,3.37,0,0,0-5.12,0,7.61,7.61,0,0,0,0,7.18,3,3,0,0,0,2.56,1.21,3,3,0,0,0,2.56-1.19A6,6,0,0,0,316.21,149.7Z"/><path d="M330,155.94h-2.14v-7.12a13.49,13.49,0,0,0-.08-1.6,3.4,3.4,0,0,0-.32-1.19,1.7,1.7,0,0,0-.73-.7,2.83,2.83,0,0,0-1.27-.23,3.66,3.66,0,0,0-1.64.42,8.25,8.25,0,0,0-1.65,1.09v9.33H320V143.45h2.13v1.37a8.64,8.64,0,0,1,1.89-1.28,4.39,4.39,0,0,1,2-.44,3.66,3.66,0,0,1,2.92,1.21,5.18,5.18,0,0,1,1.06,3.52Z"/><path d="M334.72,141.35h-2.43v-2.18h2.43Zm-.15,14.59h-2.13V143.45h2.13Z"/><path d="M342.16,156.23a7,7,0,0,1-2.39-.4,5,5,0,0,1-1.88-1.2,5.64,5.64,0,0,1-1.21-2,8.56,8.56,0,0,1-.43-2.88,8.07,8.07,0,0,1,.44-2.84,5.88,5.88,0,0,1,1.2-2,5,5,0,0,1,1.87-1.27,6.52,6.52,0,0,1,2.4-.44,6.75,6.75,0,0,1,2,.3,9.61,9.61,0,0,1,1.73.67v2.36h-.13a6.83,6.83,0,0,0-.57-.44c-.25-.16-.54-.34-.87-.51a7.31,7.31,0,0,0-1.05-.39,4.27,4.27,0,0,0-1.15-.17,3.23,3.23,0,0,0-2.66,1.25,5.32,5.32,0,0,0-1,3.49,5.43,5.43,0,0,0,1,3.45,3.23,3.23,0,0,0,2.7,1.24,4.79,4.79,0,0,0,2-.42,5.79,5.79,0,0,0,1.66-1.1h.13v2.36l-.79.35a6.1,6.1,0,0,1-.86.31,8.61,8.61,0,0,1-1,.24A6.43,6.43,0,0,1,342.16,156.23Z"/><path d="M350.69,156.25a7.85,7.85,0,0,1-2.37-.34,10.29,10.29,0,0,1-1.84-.71v-2.36h.11l.64.47a8.48,8.48,0,0,0,1,.53,8.22,8.22,0,0,0,1.19.44,5.08,5.08,0,0,0,1.36.19,5.42,5.42,0,0,0,1.09-.12,2.75,2.75,0,0,0,.86-.29,2,2,0,0,0,.57-.55,1.83,1.83,0,0,0,.19-.88,1.45,1.45,0,0,0-.43-1.13,3.34,3.34,0,0,0-1.47-.63l-1.06-.24c-.44-.09-.85-.19-1.22-.29a4,4,0,0,1-2.11-1.28,3.65,3.65,0,0,1,.64-4.86,5.29,5.29,0,0,1,3.44-1.06,9.17,9.17,0,0,1,2.12.26,7.16,7.16,0,0,1,1.78.65v2.25h-.1a6.48,6.48,0,0,0-1.82-1,5.77,5.77,0,0,0-2-.37,3.37,3.37,0,0,0-1.79.44,1.46,1.46,0,0,0-.72,1.32,1.49,1.49,0,0,0,.43,1.17,3.41,3.41,0,0,0,1.39.63l1.05.24c.4.07.8.17,1.24.27a4,4,0,0,1,2.12,1.16,3.2,3.2,0,0,1,.71,2.19,3.63,3.63,0,0,1-.33,1.53,3.28,3.28,0,0,1-.95,1.24,4.86,4.86,0,0,1-1.53.84A6.63,6.63,0,0,1,350.69,156.25Z"/><path d="M378.37,155.94h-2.24V141.58l-4.4,9.78h-1.37L366,141.58v14.36h-2.1V139.28H367l4.23,9.28,4.06-9.28h3.12Z"/><path d="M386.56,156.24a6.33,6.33,0,0,1-4.7-1.69,6.47,6.47,0,0,1-1.68-4.79,7,7,0,0,1,1.62-4.86,5.44,5.44,0,0,1,4.25-1.8,5.86,5.86,0,0,1,2.08.33,4,4,0,0,1,1.59,1.06,4.74,4.74,0,0,1,1,1.74,7.85,7.85,0,0,1,.36,2.54v1.14h-8.79a4.59,4.59,0,0,0,1.11,3.33,4.06,4.06,0,0,0,3.08,1.16,5.87,5.87,0,0,0,1.39-.16,5.73,5.73,0,0,0,1.21-.4,7.14,7.14,0,0,0,1-.5,4.55,4.55,0,0,0,.67-.45h.12v2.29c-.25.11-.56.23-.93.37a8.48,8.48,0,0,1-1,.34c-.41.11-.79.2-1.13.26A7.38,7.38,0,0,1,386.56,156.24Zm2.49-7.94a6.11,6.11,0,0,0-.21-1.47,3,3,0,0,0-.51-1,2.44,2.44,0,0,0-1-.71,3.87,3.87,0,0,0-1.45-.26,3.74,3.74,0,0,0-1.44.26,3.42,3.42,0,0,0-1.09.73,3.77,3.77,0,0,0-.73,1.1,5,5,0,0,0-.32,1.39Z"/><path d="M393.16,158l.63.24a8.38,8.38,0,0,0,.95.28c.4.1.77.18,1.1.24a5.84,5.84,0,0,0,1.08.1,4.72,4.72,0,0,0,1.69-.27,2.64,2.64,0,0,0,1.06-.71,2.87,2.87,0,0,0,.51-1.07,5.72,5.72,0,0,0,.15-1.38v-1.09a6.86,6.86,0,0,1-1.69,1.09,5.4,5.4,0,0,1-2.08.35,4.19,4.19,0,0,1-3.45-1.59,7.12,7.12,0,0,1-1.29-4.56,8.06,8.06,0,0,1,.45-2.76,6.27,6.27,0,0,1,1.2-2,4.91,4.91,0,0,1,3.7-1.67,5.44,5.44,0,0,1,1.71.23,7.11,7.11,0,0,1,1.45.65l.12-.53h2v11.08a6.62,6.62,0,0,1-1.4,4.66,5.67,5.67,0,0,1-4.3,1.49,12.71,12.71,0,0,1-1.92-.15,13.59,13.59,0,0,1-1.8-.39V158Zm7.17-5.4v-6.86a8.13,8.13,0,0,0-1.47-.54,5.66,5.66,0,0,0-1.35-.16,3,3,0,0,0-2.54,1.17,5.28,5.28,0,0,0-.94,3.37,5.84,5.84,0,0,0,.71,3.17,2.55,2.55,0,0,0,2.3,1.09,4.83,4.83,0,0,0,1.7-.33A5.57,5.57,0,0,0,400.33,152.55Z"/><path d="M412,154.61l-.69.54a6.56,6.56,0,0,1-.85.54,7.42,7.42,0,0,1-1.09.45,5.75,5.75,0,0,1-1.48.15,4,4,0,0,1-1.49-.29,3.83,3.83,0,0,1-1.24-.82,3.7,3.7,0,0,1-.81-1.26,4.49,4.49,0,0,1,.25-3.81,3.81,3.81,0,0,1,1.75-1.45,9,9,0,0,1,2.53-.67c1-.12,2-.21,3.12-.27v-.4a2.71,2.71,0,0,0-.22-1.2,1.78,1.78,0,0,0-.63-.7,2.67,2.67,0,0,0-1-.34A9.34,9.34,0,0,0,409,145a8.16,8.16,0,0,0-1.74.22,10.9,10.9,0,0,0-2,.63h-.13v-2.14c.4-.11,1-.23,1.7-.37a11.46,11.46,0,0,1,2.17-.2,10,10,0,0,1,2.21.2,4.45,4.45,0,0,1,1.61.73,3.24,3.24,0,0,1,1,1.33,5.3,5.3,0,0,1,.34,2v8.55H412Zm0-1.75V149.4l-1.92.18a11,11,0,0,0-1.88.33,3.49,3.49,0,0,0-1.4.79,2,2,0,0,0-.56,1.49,2.1,2.1,0,0,0,.61,1.62,2.68,2.68,0,0,0,1.79.54,3.76,3.76,0,0,0,1.84-.43A7.7,7.7,0,0,0,412,152.86Z"/><path d="M420,156.25a7.94,7.94,0,0,1-2.37-.34,10.33,10.33,0,0,1-1.82-.71v-2.36h.1l.64.47a9.12,9.12,0,0,0,1,.53,9,9,0,0,0,1.21.44,5,5,0,0,0,1.35.19,5.32,5.32,0,0,0,1.08-.12,2.83,2.83,0,0,0,.87-.29,2,2,0,0,0,.57-.55,1.84,1.84,0,0,0,.18-.88,1.47,1.47,0,0,0-.41-1.13,3.44,3.44,0,0,0-1.48-.63c-.27-.07-.62-.15-1.07-.24s-.84-.19-1.2-.29a3.94,3.94,0,0,1-2.12-1.28,3.65,3.65,0,0,1,.64-4.86,5.31,5.31,0,0,1,3.44-1.06,9.11,9.11,0,0,1,2.12.26,7.4,7.4,0,0,1,1.79.65v2.25h-.12a6.42,6.42,0,0,0-1.81-1,5.79,5.79,0,0,0-2-.37,3.28,3.28,0,0,0-1.77.44,1.45,1.45,0,0,0-.73,1.32,1.52,1.52,0,0,0,.43,1.17,3.41,3.41,0,0,0,1.39.63c.31.09.67.16,1.06.24s.8.17,1.23.27a4.1,4.1,0,0,1,2.12,1.16,3.2,3.2,0,0,1,.7,2.19,3.62,3.62,0,0,1-.32,1.53,3.28,3.28,0,0,1-.95,1.24,4.75,4.75,0,0,1-1.53.84A6.61,6.61,0,0,1,420,156.25Z"/><path d="M430.2,156.19a3.64,3.64,0,0,1-2.72-1,4.23,4.23,0,0,1-1-3.09v-6.93h-1.43v-1.74h1.43v-3.6h2.14v3.6h3.93v1.74h-3.93v5.95c0,.63,0,1.12,0,1.46a2.45,2.45,0,0,0,.26,1,1.19,1.19,0,0,0,.62.59,2.85,2.85,0,0,0,1.16.2,3.51,3.51,0,0,0,1-.16,5.52,5.52,0,0,0,.7-.25h.13v1.89c-.41.11-.82.2-1.24.27A7.57,7.57,0,0,1,430.2,156.19Z"/><path d="M444,149.7a7.06,7.06,0,0,1-1.55,4.88,5.24,5.24,0,0,1-4.11,1.71,5.19,5.19,0,0,1-4.16-1.77,7.23,7.23,0,0,1-1.51-4.82,7.08,7.08,0,0,1,1.56-4.88,5.27,5.27,0,0,1,4.11-1.72,5.22,5.22,0,0,1,4.11,1.72A7.09,7.09,0,0,1,444,149.7Zm-2.2,0a5.94,5.94,0,0,0-.9-3.61,3,3,0,0,0-2.56-1.18,3,3,0,0,0-2.57,1.18,7.61,7.61,0,0,0,0,7.18,3,3,0,0,0,2.57,1.21,3,3,0,0,0,2.55-1.19A5.88,5.88,0,0,0,441.79,149.7Z"/><path d="M452.3,145.7h-.1a2.72,2.72,0,0,0-.51-.08l-.64,0a4.39,4.39,0,0,0-1.71.37,5.87,5.87,0,0,0-1.61,1.09v8.88H445.6V143.45h2.13v1.85a9.71,9.71,0,0,1,2-1.44,3.88,3.88,0,0,1,1.69-.41h.49l.36,0Z"/><path d="M458.77,156.24a6.32,6.32,0,0,1-4.69-1.69,6.47,6.47,0,0,1-1.68-4.79A7,7,0,0,1,454,144.9a5.42,5.42,0,0,1,4.24-1.8,5.82,5.82,0,0,1,2.08.33,4,4,0,0,1,1.59,1.06,4.61,4.61,0,0,1,1.05,1.74,7.85,7.85,0,0,1,.36,2.54v1.14h-8.78a4.59,4.59,0,0,0,1.11,3.33,4,4,0,0,0,3.07,1.16,5.79,5.79,0,0,0,1.38-.16,6.12,6.12,0,0,0,1.23-.4,9.52,9.52,0,0,0,1-.5,5.76,5.76,0,0,0,.66-.45h.12v2.29c-.25.11-.56.23-.93.37a8.48,8.48,0,0,1-1,.34c-.41.11-.79.2-1.13.26A7.43,7.43,0,0,1,458.77,156.24Zm2.5-7.94a5.68,5.68,0,0,0-.2-1.47,3.17,3.17,0,0,0-.52-1,2.51,2.51,0,0,0-1-.71,3.87,3.87,0,0,0-1.45-.26,3.78,3.78,0,0,0-1.44.26,3.42,3.42,0,0,0-1.09.73,3.58,3.58,0,0,0-.73,1.1,4.66,4.66,0,0,0-.31,1.39Z"/><path d="M234,109.23a36.07,36.07,0,0,1-8.83-1,44.08,44.08,0,0,1-7.07-2.38V95.61h1a25,25,0,0,0,7.26,4.23,21.85,21.85,0,0,0,7.7,1.47,22.81,22.81,0,0,0,2.48-.19,8.66,8.66,0,0,0,2.48-.65,5.49,5.49,0,0,0,1.95-1.38,3.42,3.42,0,0,0,.79-2.35,3.21,3.21,0,0,0-1.29-2.64,8.41,8.41,0,0,0-3.08-1.48c-1.48-.39-3.08-.76-4.77-1.1a37,37,0,0,1-4.74-1.29c-3.38-1.18-5.82-2.77-7.27-4.76a12.26,12.26,0,0,1-2.21-7.5,11.61,11.61,0,0,1,5.2-9.85c3.45-2.51,7.8-3.75,13-3.75a39.13,39.13,0,0,1,7.76.78,36,36,0,0,1,6.93,2.1V77.1h-1a21.3,21.3,0,0,0-5.93-3.43,19.29,19.29,0,0,0-7.23-1.4,15.24,15.24,0,0,0-2.57.2,10.17,10.17,0,0,0-2.41.77,5,5,0,0,0-1.79,1.38,3.13,3.13,0,0,0-.74,2,3.23,3.23,0,0,0,1.18,2.63,12.05,12.05,0,0,0,4.6,1.76l4.23,1a37.71,37.71,0,0,1,4.36,1.28,14.73,14.73,0,0,1,6.77,4.37,11.2,11.2,0,0,1,2.22,7.26,12.41,12.41,0,0,1-5.12,10.38C244.4,107.91,239.77,109.23,234,109.23Z"/><path d="M294.42,108.41V92.1c0-1.61,0-3-.08-4.08a8.06,8.06,0,0,0-.53-2.7,3,3,0,0,0-1.37-1.53,5.86,5.86,0,0,0-2.6-.47,5.76,5.76,0,0,0-2.34.5A16.57,16.57,0,0,0,285,85.27v23.14H274.7V92.1c0-1.6,0-2.94-.1-4.07a8.55,8.55,0,0,0-.55-2.71,3,3,0,0,0-1.37-1.53,5.8,5.8,0,0,0-2.58-.47,5.59,5.59,0,0,0-2.47.58,17.4,17.4,0,0,0-2.34,1.37v23.14H255V75.86h10.32V79.4A28.24,28.24,0,0,1,270,76.09a10.58,10.58,0,0,1,5-1.19,9.8,9.8,0,0,1,5.31,1.43,9,9,0,0,1,3.5,4.23,30.23,30.23,0,0,1,5.58-4.19,11,11,0,0,1,9.45-.74A7.86,7.86,0,0,1,302,77.8a10.49,10.49,0,0,1,2.07,3.74,19.1,19.1,0,0,1,.68,5.65v21.22Z"/><path d="M327.47,105l-1.88,1.57a11.59,11.59,0,0,1-2.22,1.39,15,15,0,0,1-2.66,1,14.82,14.82,0,0,1-3.62.35,9.76,9.76,0,0,1-7.22-2.9A10.05,10.05,0,0,1,307,99.07a10.76,10.76,0,0,1,1.44-5.87,10.06,10.06,0,0,1,4.21-3.55,22.11,22.11,0,0,1,6.62-1.86c2.55-.34,5.31-.62,8.27-.81v-.17a3.93,3.93,0,0,0-2-3.83,13.18,13.18,0,0,0-6-1,15.63,15.63,0,0,0-4.23.68,31.06,31.06,0,0,0-4.72,1.73h-.86V76.45c1-.28,2.65-.64,4.91-1a38.45,38.45,0,0,1,6.86-.6q8.49,0,12.38,2.81c2.59,1.87,3.88,4.71,3.88,8.55v22.22H327.47Zm0-5.07V93.12c-1.71.18-3.11.32-4.16.45a13.6,13.6,0,0,0-3.12.73,4.32,4.32,0,0,0-2.06,1.41,3.88,3.88,0,0,0-.75,2.5,3.56,3.56,0,0,0,1.23,3.13,6.38,6.38,0,0,0,3.63.85,6.72,6.72,0,0,0,2.72-.61A8.54,8.54,0,0,0,327.47,99.89Z"/><path d="M363.06,85.44h-.84a7.18,7.18,0,0,0-1.7-.34c-.74-.07-1.58-.1-2.48-.1a13.54,13.54,0,0,0-3.39.47,31.29,31.29,0,0,0-3.44,1.1v21.84H340.9V75.86h10.31v4.63c.47-.43,1.12-1,2-1.6a22.57,22.57,0,0,1,2.27-1.57,13.3,13.3,0,0,1,2.6-1.14,9.11,9.11,0,0,1,2.81-.48l1.12,0,1.1.08Z"/><path d="M381.11,109.07q-6.28,0-9.15-2.55t-2.85-8.35V83h-3.93V75.86h3.93V66.57h10.3v9.29h9.87V83h-9.87V94.49c0,1.14,0,2.14,0,3a6.35,6.35,0,0,0,.47,2.29,3.36,3.36,0,0,0,1.45,1.61,6.23,6.23,0,0,0,3,.6,12.62,12.62,0,0,0,4-1h.89v7.12a28.78,28.78,0,0,1-3.56.69A39.67,39.67,0,0,1,381.11,109.07Z"/><path d="M423.77,95.17a12.59,12.59,0,0,1-1.22,5.68,11.4,11.4,0,0,1-3.34,4.05,15.26,15.26,0,0,1-5.28,2.71,27.38,27.38,0,0,1-7.31.8H394V65.24h11.63a60.57,60.57,0,0,1,7,.3A13.38,13.38,0,0,1,417.17,67a8,8,0,0,1,3.45,3.26A9.85,9.85,0,0,1,421.7,75a9.6,9.6,0,0,1-1.61,5.46,11.2,11.2,0,0,1-4.52,3.77v.23a10.34,10.34,0,0,1,8.2,10.72Zm-8.15-19.33a6.21,6.21,0,0,0-.52-2.69,4,4,0,0,0-1.7-1.81,8.35,8.35,0,0,0-3.15-1c-1.15-.1-2.75-.16-4.77-.16H399.9V82.8h6.61a21.57,21.57,0,0,0,4-.27,8.57,8.57,0,0,0,2.68-1.14,4.69,4.69,0,0,0,1.87-2.2A8.7,8.7,0,0,0,415.62,75.84Zm2.09,19.52a9.78,9.78,0,0,0-.71-4,5.79,5.79,0,0,0-2.85-2.67,8.94,8.94,0,0,0-3-.93,40.41,40.41,0,0,0-4.62-.21H399.9v15.89h4.73a40.55,40.55,0,0,0,6-.35,9.37,9.37,0,0,0,3.89-1.48,7.28,7.28,0,0,0,2.4-2.54A7.74,7.74,0,0,0,417.71,95.36Z"/><path d="M455,108.41H449.4V104.8a23.86,23.86,0,0,1-4.85,3.35,11.26,11.26,0,0,1-5.09,1.14,11.66,11.66,0,0,1-4-.69,8.36,8.36,0,0,1-3.3-2.21,10.13,10.13,0,0,1-2.18-3.79,17.53,17.53,0,0,1-.79-5.58V76h5.57V94.44a36.39,36.39,0,0,0,.19,4.28,8.13,8.13,0,0,0,.86,3,4.08,4.08,0,0,0,1.83,1.82,7.37,7.37,0,0,0,3.32.6,9.74,9.74,0,0,0,4.29-1.14,20.47,20.47,0,0,0,4.19-2.78V76H455Z"/><path d="M488.76,76l-17.69,44.36h-5.89l5.88-13.49L459.1,76h5.95l9,24.07L483,76Z"/><path d="M497.05,67h-3.21v8.94h-1.78V67h-3.2V65.22h8.19Zm12.23,8.94h-1.73V66.57h-.28l-2.87,6.89h-1.19l-2.88-7H500v9.48h-1.73V65.22h3.33L503.84,71l2.27-5.82h3.17Z"/></svg>