<svg id="Layer_1" data-name="Layer 1" xmlns="http://www.w3.org/2000/svg" viewBox="0 0 549.41 546.15"><path d="M389.91,344.65H373.13a9.79,9.79,0,0,1-6.39-2.37l-6.86-5.89-5.55,5.48a202.41,202.41,0,0,0,54.76-138.33C409.3,91.37,318.12,0,206,0,93,0,1.64,92.13,2.83,205.33,4,316.61,94.67,406.27,206,406.27a202.35,202.35,0,0,0,136.81-53l-5.18,5.12,6.16,5.61a9.84,9.84,0,0,1,3.2,7.25v17.2a9.78,9.78,0,0,0,2.86,6.93L497.17,543.27a9.81,9.81,0,0,0,14.06-.18l32.67-34.45a9.82,9.82,0,0,0-.17-13.67L396.86,347.53A9.87,9.87,0,0,0,389.91,344.65Zm-182.72.29a141.82,141.82,0,0,1-143-143c.66-77,63.58-139.9,140.57-140.57a141.82,141.82,0,0,1,143,143.05C347.11,281.37,284.18,344.29,207.19,344.94Z"/></svg>